<svg xmlns="http://www.w3.org/2000/svg" width="49" height="49" viewBox="0 0 49 49" fill="none">
<path fill-rule="evenodd" clip-rule="evenodd" d="M41.8539 14.5837L41.5739 14.0837C41.2127 13.4791 40.7033 12.9766 40.0939 12.6237L26.6739 4.88375C26.0663 4.53125 25.3765 4.34499 24.6739 4.34375H24.0939C23.3913 4.34499 22.7015 4.53125 22.0939 4.88375L8.67392 12.6437C8.06786 12.9943 7.56444 13.4977 7.21392 14.1037L6.93392 14.6037C6.58142 15.2114 6.39516 15.9012 6.39392 16.6037V32.1037C6.39516 32.8063 6.58142 33.4961 6.93392 34.1037L7.21392 34.6037C7.5735 35.2027 8.0749 35.7041 8.67392 36.0637L22.1139 43.8037C22.7185 44.1635 23.4103 44.3503 24.1139 44.3437H24.6739C25.3765 44.3425 26.0663 44.1563 26.6739 43.8037L40.0939 36.0437C40.7059 35.7011 41.2113 35.1957 41.5539 34.5837L41.8539 34.0837C42.2021 33.4743 42.3881 32.7857 42.3939 32.0837V16.5837C42.3927 15.8812 42.2065 15.1914 41.8539 14.5837ZM24.0939 8.34375H24.6739L36.3939 15.1037L24.3939 22.0237L12.3939 15.1037L24.0939 8.34375ZM26.3939 39.3437L38.0939 32.5837L38.3939 32.0837V18.5637L26.3939 25.5037V39.3437Z" fill="#0B0105"/>
</svg>