<svg xmlns="http://www.w3.org/2000/svg" width="25" height="25" viewBox="0 0 25 25" fill="none">
  <path fill-rule="evenodd" clip-rule="evenodd" d="M16.8939 3.58594H8.89392C6.1325 3.58594 3.89392 5.82452 3.89392 8.58594V16.5859C3.89392 19.3473 6.1325 21.5859 8.89392 21.5859H16.8939C19.6553 21.5859 21.8939 19.3473 21.8939 16.5859V8.58594C21.8939 5.82452 19.6553 3.58594 16.8939 3.58594ZM20.1439 16.5859C20.1384 18.3785 18.6865 19.8304 16.8939 19.8359H8.89392C7.10127 19.8304 5.64941 18.3785 5.64392 16.5859V8.58594C5.64941 6.79329 7.10127 5.34143 8.89392 5.33594H16.8939C18.6865 5.34143 20.1384 6.79329 20.1439 8.58594V16.5859ZM17.6439 8.83594C18.1962 8.83594 18.6439 8.38822 18.6439 7.83594C18.6439 7.28366 18.1962 6.83594 17.6439 6.83594C17.0916 6.83594 16.6439 7.28366 16.6439 7.83594C16.6439 8.38822 17.0916 8.83594 17.6439 8.83594ZM12.8939 8.08594C10.4086 8.08594 8.39392 10.1007 8.39392 12.5859C8.39392 15.0712 10.4086 17.0859 12.8939 17.0859C15.3792 17.0859 17.3939 15.0712 17.3939 12.5859C17.3966 11.3916 16.9233 10.2455 16.0788 9.40102C15.2343 8.55653 14.0882 8.08328 12.8939 8.08594ZM10.1439 12.5859C10.1439 14.1047 11.3751 15.3359 12.8939 15.3359C14.4127 15.3359 15.6439 14.1047 15.6439 12.5859C15.6439 11.0671 14.4127 9.83594 12.8939 9.83594C11.3751 9.83594 10.1439 11.0671 10.1439 12.5859Z" fill="white"/>
</svg>