<svg xmlns="http://www.w3.org/2000/svg" width="25" height="25" viewBox="0 0 25 25" fill="none">
  <path fill-rule="evenodd" clip-rule="evenodd" d="M5.39392 3.58594C4.56549 3.58594 3.89392 4.25751 3.89392 5.08594V20.0859C3.89392 20.9143 4.56549 21.5859 5.39392 21.5859H20.3939C21.2223 21.5859 21.8939 20.9143 21.8939 20.0859V5.08594C21.8939 4.25751 21.2223 3.58594 20.3939 3.58594H5.39392ZM9.41468 7.58866C9.42031 8.54491 8.70453 9.13413 7.85515 9.12991C7.05499 9.12569 6.35749 8.48866 6.36171 7.59007C6.36593 6.74491 7.0339 6.06569 7.90156 6.08538C8.78187 6.10507 9.42031 6.75054 9.41468 7.58866ZM13.1736 10.3477H10.6536H10.6522V18.9075H13.3156V18.7078C13.3156 18.3279 13.3153 17.9479 13.315 17.5678C13.3142 16.554 13.3133 15.5391 13.3185 14.5256C13.3199 14.2795 13.3311 14.0236 13.3944 13.7887C13.632 12.9112 14.421 12.3445 15.3013 12.4838C15.8666 12.5723 16.2406 12.9 16.3981 13.433C16.4952 13.7662 16.5388 14.1248 16.543 14.4722C16.5544 15.5198 16.5528 16.5674 16.5512 17.6151C16.5506 17.9849 16.55 18.3549 16.55 18.7247V18.9061H19.2219V18.7008C19.2219 18.2488 19.2217 17.7969 19.2214 17.345C19.2209 16.2155 19.2203 15.086 19.2233 13.9561C19.2247 13.4456 19.1699 12.9422 19.0447 12.4486C18.8577 11.7145 18.471 11.107 17.8424 10.6683C17.3966 10.3561 16.9072 10.155 16.3602 10.1325C16.2979 10.1299 16.2351 10.1266 16.172 10.1231C15.8923 10.108 15.608 10.0927 15.3406 10.1466C14.5756 10.2999 13.9035 10.65 13.3958 11.2673C13.3368 11.3381 13.2791 11.41 13.193 11.5173L13.1736 11.5416V10.3477ZM6.57556 18.9103H9.22634V10.3533H6.57556V18.9103Z" fill="white"/>
</svg>