<svg xmlns="http://www.w3.org/2000/svg" width="25" height="25" viewBox="0 0 25 25" fill="none">
  <path d="M22.4869 7.54676C22.373 7.12416 22.1504 6.73876 21.8413 6.42893C21.5322 6.11909 21.1473 5.89562 20.7249 5.78076C19.1589 5.35076 12.8939 5.34376 12.8939 5.34376C12.8939 5.34376 6.62995 5.33676 5.06295 5.74776C4.64087 5.8679 4.25677 6.09453 3.94751 6.40589C3.63826 6.71725 3.41423 7.10288 3.29695 7.52576C2.88395 9.09176 2.87995 12.3398 2.87995 12.3398C2.87995 12.3398 2.87595 15.6038 3.28595 17.1538C3.51595 18.0108 4.19095 18.6878 5.04895 18.9188C6.63095 19.3488 12.8789 19.3558 12.8789 19.3558C12.8789 19.3558 19.1439 19.3628 20.7099 18.9528C21.1324 18.8381 21.5177 18.6151 21.8276 18.3059C22.1375 17.9967 22.3613 17.612 22.4769 17.1898C22.8909 15.6248 22.8939 12.3778 22.8939 12.3778C22.8939 12.3778 22.9139 9.11276 22.4869 7.54676ZM10.8899 15.3488L10.8949 9.34876L16.1019 12.3538L10.8899 15.3488Z" fill="white"/>
</svg>